<svg xmlns="http://www.w3.org/2000/svg" xmlns:v="https://svgstorm.com"
viewBox = "0 0 512 512"
width="512"
height="512">
<g fill="None" fill-opacity="0.0" stroke="#000000" stroke-opacity="0.00" stroke-width="0.3"><path d="
M 0.00 76.00 
C 40.00 76.00 80.00 76.00 120.00 76.00
C 126.14 106.11 132.81 136.15 140.00 166.00
C 189.00 166.00 238.00 166.00 287.00 166.00
C 293.47 166.00 305.05 163.69 311.00 166.00
C 275.70 96.94 333.60 16.00 407.00 16.00
C 458.66 16.00 505.06 54.73 512.00 106.00
L 512.00 0.00
L 0.00 0.00
L 0.00 76.00 Z"/>
</g>
<g fill="None" fill-opacity="0.0" stroke="#FE7F40" stroke-opacity="0.99" stroke-width="0.3"><path d="
M 311.00 166.00 
C 320.34 184.28 336.49 199.97 353.00 212.00
C 367.87 222.84 388.75 226.00 407.00 226.00
C 407.00 196.00 407.00 166.00 407.00 136.00
C 392.00 136.00 377.00 136.00 362.00 136.00
C 362.00 126.00 362.00 116.00 362.00 106.00
C 377.00 106.00 392.00 106.00 407.00 106.00
C 407.00 76.00 407.00 46.00 407.00 16.00
C 333.60 16.00 275.70 96.94 311.00 166.00 Z"/>
</g>
<g fill="None" fill-opacity="0.0" stroke="#F25A3C" stroke-opacity="0.99" stroke-width="0.3"><path d="
M 407.00 106.00 
C 422.00 106.00 437.00 106.00 452.00 106.00
C 452.00 116.00 452.00 126.00 452.00 136.00
C 437.00 136.00 422.00 136.00 407.00 136.00
C 407.00 166.00 407.00 196.00 407.00 226.00
C 413.40 226.00 419.90 226.31 426.00 225.00
C 438.19 222.39 450.72 217.22 462.00 211.00
C 489.67 195.74 506.85 165.37 512.00 136.00
L 512.00 106.00
C 505.06 54.73 458.66 16.00 407.00 16.00
C 407.00 46.00 407.00 76.00 407.00 106.00 Z"/>
</g>
<g fill="None" fill-opacity="0.0" stroke="#66CCFE" stroke-opacity="0.98" stroke-width="0.3"><path d="
M 0.00 106.00 
C 31.67 106.00 63.33 106.00 95.00 106.00
C 111.68 186.23 130.09 266.07 148.00 346.00
C 117.39 340.28 90.12 363.22 92.00 394.00 C 93.88 424.78 124.03 442.14 154.00 436.00
C 160.79 421.64 173.97 408.60 190.00 406.00
C 173.83 406.00 153.78 405.37 138.00 406.00 C 122.22 406.63 116.40 382.20 131.70 377.70 C 147.00 373.20 165.32 376.89 182.00 376.00 C 198.68 375.11 216.90 376.32 234.00 376.00 C 251.10 375.68 269.76 376.00 287.00 376.00
C 287.00 366.00 287.00 356.00 287.00 346.00
C 279.33 346.00 271.67 346.00 264.00 346.00
C 262.06 326.08 260.39 306.08 259.00 286.00
C 268.33 286.00 277.67 286.00 287.00 286.00
C 287.00 276.00 287.00 266.00 287.00 256.00
C 276.67 256.00 266.33 256.00 256.00 256.00
C 254.88 235.87 253.22 215.87 251.00 196.00
C 263.00 196.00 275.00 196.00 287.00 196.00
C 287.00 186.00 287.00 176.00 287.00 166.00
C 238.00 166.00 189.00 166.00 140.00 166.00
C 132.81 136.15 126.14 106.11 120.00 76.00
C 80.00 76.00 40.00 76.00 0.00 76.00
L 0.00 106.00
M 220.00 196.00 
C 221.94 215.92 223.61 235.92 225.00 256.00
C 203.33 256.00 181.67 256.00 160.00 256.00
C 154.59 236.21 151.41 215.80 146.00 196.00
C 170.67 196.00 195.33 196.00 220.00 196.00
M 228.00 286.00 
C 229.12 306.13 230.78 326.13 233.00 346.00
C 215.33 346.00 197.67 346.00 180.00 346.00
C 174.59 326.21 171.41 305.79 166.00 286.00
C 186.67 286.00 207.33 286.00 228.00 286.00 Z"/>
</g>
<g fill="None" fill-opacity="0.0" stroke="#000000" stroke-opacity="0.00" stroke-width="0.3"><path d="
M 0.00 512.00 
L 512.00 512.00
L 512.00 136.00
C 506.85 165.37 489.67 195.74 462.00 211.00
C 455.64 219.22 457.65 233.45 453.22 243.22 C 448.79 253.00 448.62 266.58 445.01 277.01 C 441.40 287.44 439.36 298.44 436.22 309.22 C 433.08 320.00 430.98 332.08 428.01 343.01 C 425.03 353.94 421.99 365.05 419.00 376.00
C 375.00 376.00 331.00 376.00 287.00 376.00
C 269.76 376.00 251.10 375.68 234.00 376.00 C 216.90 376.32 198.68 375.11 182.00 376.00 C 165.32 376.89 147.00 373.20 131.70 377.70 C 116.40 382.20 122.22 406.63 138.00 406.00 C 153.78 405.37 173.83 406.00 190.00 406.00
C 194.00 406.00 198.00 406.00 202.00 406.00
C 230.33 406.00 258.67 406.00 287.00 406.00
C 305.33 406.00 323.67 406.00 342.00 406.00
C 345.33 406.00 348.67 406.00 352.00 406.00
C 375.33 406.00 398.67 406.00 422.00 406.00
C 422.00 416.00 422.00 426.00 422.00 436.00
C 411.33 436.00 400.67 436.00 390.00 436.00
C 403.86 465.31 375.15 496.04 347.00 496.00 C 318.85 495.96 290.12 465.34 304.00 436.00
C 300.03 437.72 291.40 436.00 287.00 436.00
C 279.78 436.00 271.07 437.11 264.00 436.00 C 256.93 434.89 246.46 438.79 240.00 436.00
C 253.86 465.31 225.15 496.04 197.00 496.00 C 168.85 495.96 140.12 465.34 154.00 436.00
C 124.03 442.14 93.88 424.78 92.00 394.00 C 90.12 363.22 117.39 340.28 148.00 346.00
C 130.09 266.07 111.68 186.23 95.00 106.00
C 63.33 106.00 31.67 106.00 0.00 106.00
L 0.00 512.00 Z"/>
</g>
<g fill="None" fill-opacity="0.0" stroke="#FFF7E6" stroke-opacity="1.00" stroke-width="0.3"><path d="
M 407.00 136.00 
C 407.00 126.00 407.00 116.00 407.00 106.00
C 392.00 106.00 377.00 106.00 362.00 106.00
C 362.00 116.00 362.00 126.00 362.00 136.00
C 377.00 136.00 392.00 136.00 407.00 136.00 Z"/>
</g>
<g fill="None" fill-opacity="0.0" stroke="#FFEACC" stroke-opacity="1.00" stroke-width="0.3"><path d="
M 407.00 136.00 
C 422.00 136.00 437.00 136.00 452.00 136.00
C 452.00 126.00 452.00 116.00 452.00 106.00
C 437.00 106.00 422.00 106.00 407.00 106.00
C 407.00 116.00 407.00 126.00 407.00 136.00 Z"/>
</g>
<g fill="None" fill-opacity="0.0" stroke="#59ABFE" stroke-opacity="0.99" stroke-width="0.3"><path d="
M 287.00 196.00 
C 299.00 196.00 311.00 196.00 323.00 196.00
C 320.78 215.85 319.12 235.86 318.00 256.00
C 307.67 256.00 297.33 256.00 287.00 256.00
C 287.00 266.00 287.00 276.00 287.00 286.00
C 296.33 286.00 305.67 286.00 315.00 286.00
C 313.61 306.06 311.94 326.06 310.00 346.00
C 302.33 346.00 294.67 346.00 287.00 346.00
C 287.00 356.00 287.00 366.00 287.00 376.00
C 331.00 376.00 375.00 376.00 419.00 376.00
C 421.99 365.05 425.03 353.94 428.01 343.01 C 430.98 332.08 433.08 320.00 436.22 309.22 C 439.36 298.44 441.40 287.44 445.01 277.01 C 448.62 266.58 448.79 253.00 453.22 243.22 C 457.65 233.45 455.64 219.22 462.00 211.00
C 450.72 217.22 438.19 222.39 426.00 225.00
C 422.90 228.42 424.37 235.76 422.07 240.07 C 419.78 244.39 420.01 251.40 418.00 256.00
C 395.00 256.00 372.00 256.00 349.00 256.00
C 350.14 241.37 350.79 225.97 353.00 212.00
C 336.49 199.97 320.34 184.28 311.00 166.00
C 305.05 163.69 293.47 166.00 287.00 166.00
C 287.00 176.00 287.00 186.00 287.00 196.00
M 410.00 286.00 
C 405.63 306.15 399.55 325.87 395.00 346.00
C 377.00 346.00 359.00 346.00 341.00 346.00
C 343.22 326.15 344.88 306.14 346.00 286.00
C 367.33 286.00 388.67 286.00 410.00 286.00 Z"/>
</g>
<g fill="None" fill-opacity="0.0" stroke="#000000" stroke-opacity="0.00" stroke-width="0.3"><path d="
M 220.00 196.00 
C 195.33 196.00 170.67 196.00 146.00 196.00
C 151.41 215.80 154.59 236.21 160.00 256.00
C 181.67 256.00 203.33 256.00 225.00 256.00
C 223.61 235.92 221.94 215.92 220.00 196.00 Z"/>
</g>
<g fill="None" fill-opacity="0.0" stroke="#000000" stroke-opacity="0.00" stroke-width="0.3"><path d="
M 287.00 256.00 
C 297.33 256.00 307.67 256.00 318.00 256.00
C 319.12 235.86 320.78 215.85 323.00 196.00
C 311.00 196.00 299.00 196.00 287.00 196.00
C 275.00 196.00 263.00 196.00 251.00 196.00
C 253.22 215.87 254.88 235.87 256.00 256.00
C 266.33 256.00 276.67 256.00 287.00 256.00 Z"/>
</g>
<g fill="None" fill-opacity="0.0" stroke="#000000" stroke-opacity="0.00" stroke-width="0.3"><path d="
M 426.00 225.00 
C 419.90 226.31 413.40 226.00 407.00 226.00
C 388.75 226.00 367.87 222.84 353.00 212.00
C 350.79 225.97 350.14 241.37 349.00 256.00
C 372.00 256.00 395.00 256.00 418.00 256.00
C 420.01 251.40 419.78 244.39 422.07 240.07 C 424.37 235.76 422.90 228.42 426.00 225.00 Z"/>
</g>
<g fill="None" fill-opacity="0.0" stroke="#000000" stroke-opacity="0.00" stroke-width="0.3"><path d="
M 228.00 286.00 
C 207.33 286.00 186.67 286.00 166.00 286.00
C 171.41 305.79 174.59 326.21 180.00 346.00
C 197.67 346.00 215.33 346.00 233.00 346.00
C 230.78 326.13 229.12 306.13 228.00 286.00 Z"/>
</g>
<g fill="None" fill-opacity="0.0" stroke="#000000" stroke-opacity="0.00" stroke-width="0.3"><path d="
M 287.00 346.00 
C 294.67 346.00 302.33 346.00 310.00 346.00
C 311.94 326.06 313.61 306.06 315.00 286.00
C 305.67 286.00 296.33 286.00 287.00 286.00
C 277.67 286.00 268.33 286.00 259.00 286.00
C 260.39 306.08 262.06 326.08 264.00 346.00
C 271.67 346.00 279.33 346.00 287.00 346.00 Z"/>
</g>
<g fill="None" fill-opacity="0.0" stroke="#000000" stroke-opacity="0.00" stroke-width="0.3"><path d="
M 410.00 286.00 
C 388.67 286.00 367.33 286.00 346.00 286.00
C 344.88 306.14 343.22 326.15 341.00 346.00
C 359.00 346.00 377.00 346.00 395.00 346.00
C 399.55 325.87 405.63 306.15 410.00 286.00 Z"/>
</g>
<g fill="None" fill-opacity="0.0" stroke="#665151" stroke-opacity="0.98" stroke-width="0.3"><path d="
M 154.00 436.00 
C 140.12 465.34 168.85 495.96 197.00 496.00 C 225.15 496.04 253.86 465.31 240.00 436.00
C 232.77 420.70 219.05 408.06 202.00 406.00
C 198.00 406.00 194.00 406.00 190.00 406.00
C 173.97 408.60 160.79 421.64 154.00 436.00
M 201.00 436.00 
C 219.35 440.27 212.25 470.70 193.33 465.67 C 174.41 460.64 181.85 431.55 201.00 436.00 Z"/>
</g>
<g fill="None" fill-opacity="0.0" stroke="#66CBFE" stroke-opacity="1.00" stroke-width="0.3"><path d="
M 240.00 436.00 
C 246.46 438.79 256.93 434.89 264.00 436.00 C 271.07 437.11 279.78 436.00 287.00 436.00
C 287.00 426.00 287.00 416.00 287.00 406.00
C 258.67 406.00 230.33 406.00 202.00 406.00
C 219.05 408.06 232.77 420.70 240.00 436.00 Z"/>
</g>
<g fill="None" fill-opacity="0.0" stroke="#58A9FC" stroke-opacity="1.00" stroke-width="0.3"><path d="
M 287.00 436.00 
C 291.40 436.00 300.03 437.72 304.00 436.00
C 311.23 420.70 324.95 408.06 342.00 406.00
C 323.67 406.00 305.33 406.00 287.00 406.00
C 287.00 416.00 287.00 426.00 287.00 436.00 Z"/>
</g>
<g fill="None" fill-opacity="0.0" stroke="#4D3535" stroke-opacity="0.98" stroke-width="0.3"><path d="
M 304.00 436.00 
C 290.12 465.34 318.85 495.96 347.00 496.00 C 375.15 496.04 403.86 465.31 390.00 436.00
C 382.75 420.67 369.06 408.06 352.00 406.00
C 348.67 406.00 345.33 406.00 342.00 406.00
C 324.95 408.06 311.23 420.70 304.00 436.00
M 351.00 436.00 
C 369.35 440.27 362.25 470.70 343.33 465.67 C 324.41 460.64 331.85 431.55 351.00 436.00 Z"/>
</g>
<g fill="None" fill-opacity="0.0" stroke="#59AAFD" stroke-opacity="1.00" stroke-width="0.3"><path d="
M 390.00 436.00 
C 400.67 436.00 411.33 436.00 422.00 436.00
C 422.00 426.00 422.00 416.00 422.00 406.00
C 398.67 406.00 375.33 406.00 352.00 406.00
C 369.06 408.06 382.75 420.67 390.00 436.00 Z"/>
</g>
<g fill="None" fill-opacity="0.0" stroke="#FBF2E2" stroke-opacity="1.00" stroke-width="0.3"><path d="
M 201.00 436.00 
C 181.85 431.55 174.41 460.64 193.33 465.67 C 212.25 470.70 219.35 440.27 201.00 436.00 Z"/>
</g>
<g fill="None" fill-opacity="0.0" stroke="#FAE5C8" stroke-opacity="1.00" stroke-width="0.3"><path d="
M 351.00 436.00 
C 331.85 431.55 324.41 460.64 343.33 465.67 C 362.25 470.70 369.35 440.27 351.00 436.00 Z"/>
</g>
<g fill="#000000" fill-opacity="0.00" stroke="None">
<path d="
M 0.00 76.00 
C 40.00 76.00 80.00 76.00 120.00 76.00
C 126.14 106.11 132.81 136.15 140.00 166.00
C 189.00 166.00 238.00 166.00 287.00 166.00
C 293.47 166.00 305.05 163.69 311.00 166.00
C 275.70 96.94 333.60 16.00 407.00 16.00
C 458.66 16.00 505.06 54.73 512.00 106.00
L 512.00 0.00
L 0.00 0.00
L 0.00 76.00 Z"/>
</g>
<g fill="#FE7F40" fill-opacity="0.99" stroke="None">
<path d="
M 311.00 166.00 
C 320.34 184.28 336.49 199.97 353.00 212.00
C 367.87 222.84 388.75 226.00 407.00 226.00
C 407.00 196.00 407.00 166.00 407.00 136.00
C 392.00 136.00 377.00 136.00 362.00 136.00
C 362.00 126.00 362.00 116.00 362.00 106.00
C 377.00 106.00 392.00 106.00 407.00 106.00
C 407.00 76.00 407.00 46.00 407.00 16.00
C 333.60 16.00 275.70 96.94 311.00 166.00 Z"/>
</g>
<g fill="#F25A3C" fill-opacity="0.99" stroke="None">
<path d="
M 407.00 106.00 
C 422.00 106.00 437.00 106.00 452.00 106.00
C 452.00 116.00 452.00 126.00 452.00 136.00
C 437.00 136.00 422.00 136.00 407.00 136.00
C 407.00 166.00 407.00 196.00 407.00 226.00
C 413.40 226.00 419.90 226.31 426.00 225.00
C 438.19 222.39 450.72 217.22 462.00 211.00
C 489.67 195.74 506.85 165.37 512.00 136.00
L 512.00 106.00
C 505.06 54.73 458.66 16.00 407.00 16.00
C 407.00 46.00 407.00 76.00 407.00 106.00 Z"/>
</g>
<g fill="#66CCFE" fill-opacity="0.98" stroke="None">
<path d="
M 0.00 106.00 
C 31.67 106.00 63.33 106.00 95.00 106.00
C 111.68 186.23 130.09 266.07 148.00 346.00
C 117.39 340.28 90.12 363.22 92.00 394.00 C 93.88 424.78 124.03 442.14 154.00 436.00
C 160.79 421.64 173.97 408.60 190.00 406.00
C 173.83 406.00 153.78 405.37 138.00 406.00 C 122.22 406.63 116.40 382.20 131.70 377.70 C 147.00 373.20 165.32 376.89 182.00 376.00 C 198.68 375.11 216.90 376.32 234.00 376.00 C 251.10 375.68 269.76 376.00 287.00 376.00
C 287.00 366.00 287.00 356.00 287.00 346.00
C 279.33 346.00 271.67 346.00 264.00 346.00
C 262.06 326.08 260.39 306.08 259.00 286.00
C 268.33 286.00 277.67 286.00 287.00 286.00
C 287.00 276.00 287.00 266.00 287.00 256.00
C 276.67 256.00 266.33 256.00 256.00 256.00
C 254.88 235.87 253.22 215.87 251.00 196.00
C 263.00 196.00 275.00 196.00 287.00 196.00
C 287.00 186.00 287.00 176.00 287.00 166.00
C 238.00 166.00 189.00 166.00 140.00 166.00
C 132.81 136.15 126.14 106.11 120.00 76.00
C 80.00 76.00 40.00 76.00 0.00 76.00
L 0.00 106.00
M 220.00 196.00 
C 221.94 215.92 223.61 235.92 225.00 256.00
C 203.33 256.00 181.67 256.00 160.00 256.00
C 154.59 236.21 151.41 215.80 146.00 196.00
C 170.67 196.00 195.33 196.00 220.00 196.00
M 228.00 286.00 
C 229.12 306.13 230.78 326.13 233.00 346.00
C 215.33 346.00 197.67 346.00 180.00 346.00
C 174.59 326.21 171.41 305.79 166.00 286.00
C 186.67 286.00 207.33 286.00 228.00 286.00 Z"/>
</g>
<g fill="#000000" fill-opacity="0.00" stroke="None">
<path d="
M 0.00 512.00 
L 512.00 512.00
L 512.00 136.00
C 506.85 165.37 489.67 195.74 462.00 211.00
C 455.64 219.22 457.65 233.45 453.22 243.22 C 448.79 253.00 448.62 266.58 445.01 277.01 C 441.40 287.44 439.36 298.44 436.22 309.22 C 433.08 320.00 430.98 332.08 428.01 343.01 C 425.03 353.94 421.99 365.05 419.00 376.00
C 375.00 376.00 331.00 376.00 287.00 376.00
C 269.76 376.00 251.10 375.68 234.00 376.00 C 216.90 376.32 198.68 375.11 182.00 376.00 C 165.32 376.89 147.00 373.20 131.70 377.70 C 116.40 382.20 122.22 406.63 138.00 406.00 C 153.78 405.37 173.83 406.00 190.00 406.00
C 194.00 406.00 198.00 406.00 202.00 406.00
C 230.33 406.00 258.67 406.00 287.00 406.00
C 305.33 406.00 323.67 406.00 342.00 406.00
C 345.33 406.00 348.67 406.00 352.00 406.00
C 375.33 406.00 398.67 406.00 422.00 406.00
C 422.00 416.00 422.00 426.00 422.00 436.00
C 411.33 436.00 400.67 436.00 390.00 436.00
C 403.86 465.31 375.15 496.04 347.00 496.00 C 318.85 495.96 290.12 465.34 304.00 436.00
C 300.03 437.72 291.40 436.00 287.00 436.00
C 279.78 436.00 271.07 437.11 264.00 436.00 C 256.93 434.89 246.46 438.79 240.00 436.00
C 253.86 465.31 225.15 496.04 197.00 496.00 C 168.85 495.96 140.12 465.34 154.00 436.00
C 124.03 442.14 93.88 424.78 92.00 394.00 C 90.12 363.22 117.39 340.28 148.00 346.00
C 130.09 266.07 111.68 186.23 95.00 106.00
C 63.33 106.00 31.67 106.00 0.00 106.00
L 0.00 512.00 Z"/>
</g>
<g fill="#FFF7E6" fill-opacity="1.00" stroke="None">
<path d="
M 407.00 136.00 
C 407.00 126.00 407.00 116.00 407.00 106.00
C 392.00 106.00 377.00 106.00 362.00 106.00
C 362.00 116.00 362.00 126.00 362.00 136.00
C 377.00 136.00 392.00 136.00 407.00 136.00 Z"/>
</g>
<g fill="#FFEACC" fill-opacity="1.00" stroke="None">
<path d="
M 407.00 136.00 
C 422.00 136.00 437.00 136.00 452.00 136.00
C 452.00 126.00 452.00 116.00 452.00 106.00
C 437.00 106.00 422.00 106.00 407.00 106.00
C 407.00 116.00 407.00 126.00 407.00 136.00 Z"/>
</g>
<g fill="#59ABFE" fill-opacity="0.99" stroke="None">
<path d="
M 287.00 196.00 
C 299.00 196.00 311.00 196.00 323.00 196.00
C 320.78 215.85 319.12 235.86 318.00 256.00
C 307.67 256.00 297.33 256.00 287.00 256.00
C 287.00 266.00 287.00 276.00 287.00 286.00
C 296.33 286.00 305.67 286.00 315.00 286.00
C 313.61 306.06 311.94 326.06 310.00 346.00
C 302.33 346.00 294.67 346.00 287.00 346.00
C 287.00 356.00 287.00 366.00 287.00 376.00
C 331.00 376.00 375.00 376.00 419.00 376.00
C 421.99 365.05 425.03 353.94 428.01 343.01 C 430.98 332.08 433.08 320.00 436.22 309.22 C 439.36 298.44 441.40 287.44 445.01 277.01 C 448.62 266.58 448.79 253.00 453.22 243.22 C 457.65 233.45 455.64 219.22 462.00 211.00
C 450.72 217.22 438.19 222.39 426.00 225.00
C 422.90 228.42 424.37 235.76 422.07 240.07 C 419.78 244.39 420.01 251.40 418.00 256.00
C 395.00 256.00 372.00 256.00 349.00 256.00
C 350.14 241.37 350.79 225.97 353.00 212.00
C 336.49 199.97 320.34 184.28 311.00 166.00
C 305.05 163.69 293.47 166.00 287.00 166.00
C 287.00 176.00 287.00 186.00 287.00 196.00
M 410.00 286.00 
C 405.63 306.15 399.55 325.87 395.00 346.00
C 377.00 346.00 359.00 346.00 341.00 346.00
C 343.22 326.15 344.88 306.14 346.00 286.00
C 367.33 286.00 388.67 286.00 410.00 286.00 Z"/>
</g>
<g fill="#000000" fill-opacity="0.00" stroke="None">
<path d="
M 220.00 196.00 
C 195.33 196.00 170.67 196.00 146.00 196.00
C 151.41 215.80 154.59 236.21 160.00 256.00
C 181.67 256.00 203.33 256.00 225.00 256.00
C 223.61 235.92 221.94 215.92 220.00 196.00 Z"/>
</g>
<g fill="#000000" fill-opacity="0.00" stroke="None">
<path d="
M 287.00 256.00 
C 297.33 256.00 307.67 256.00 318.00 256.00
C 319.12 235.86 320.78 215.85 323.00 196.00
C 311.00 196.00 299.00 196.00 287.00 196.00
C 275.00 196.00 263.00 196.00 251.00 196.00
C 253.22 215.87 254.88 235.87 256.00 256.00
C 266.33 256.00 276.67 256.00 287.00 256.00 Z"/>
</g>
<g fill="#000000" fill-opacity="0.00" stroke="None">
<path d="
M 426.00 225.00 
C 419.90 226.31 413.40 226.00 407.00 226.00
C 388.75 226.00 367.87 222.84 353.00 212.00
C 350.79 225.97 350.14 241.37 349.00 256.00
C 372.00 256.00 395.00 256.00 418.00 256.00
C 420.01 251.40 419.78 244.39 422.07 240.07 C 424.37 235.76 422.90 228.42 426.00 225.00 Z"/>
</g>
<g fill="#000000" fill-opacity="0.00" stroke="None">
<path d="
M 228.00 286.00 
C 207.33 286.00 186.67 286.00 166.00 286.00
C 171.41 305.79 174.59 326.21 180.00 346.00
C 197.67 346.00 215.33 346.00 233.00 346.00
C 230.78 326.13 229.12 306.13 228.00 286.00 Z"/>
</g>
<g fill="#000000" fill-opacity="0.00" stroke="None">
<path d="
M 287.00 346.00 
C 294.67 346.00 302.33 346.00 310.00 346.00
C 311.94 326.06 313.61 306.06 315.00 286.00
C 305.67 286.00 296.33 286.00 287.00 286.00
C 277.67 286.00 268.33 286.00 259.00 286.00
C 260.39 306.08 262.06 326.08 264.00 346.00
C 271.67 346.00 279.33 346.00 287.00 346.00 Z"/>
</g>
<g fill="#000000" fill-opacity="0.00" stroke="None">
<path d="
M 410.00 286.00 
C 388.67 286.00 367.33 286.00 346.00 286.00
C 344.88 306.14 343.22 326.15 341.00 346.00
C 359.00 346.00 377.00 346.00 395.00 346.00
C 399.55 325.87 405.63 306.15 410.00 286.00 Z"/>
</g>
<g fill="#665151" fill-opacity="0.98" stroke="None">
<path d="
M 154.00 436.00 
C 140.12 465.34 168.85 495.96 197.00 496.00 C 225.15 496.04 253.86 465.31 240.00 436.00
C 232.77 420.70 219.05 408.06 202.00 406.00
C 198.00 406.00 194.00 406.00 190.00 406.00
C 173.97 408.60 160.79 421.64 154.00 436.00
M 201.00 436.00 
C 219.35 440.27 212.25 470.70 193.33 465.67 C 174.41 460.64 181.85 431.55 201.00 436.00 Z"/>
</g>
<g fill="#66CBFE" fill-opacity="1.00" stroke="None">
<path d="
M 240.00 436.00 
C 246.46 438.79 256.93 434.89 264.00 436.00 C 271.07 437.11 279.78 436.00 287.00 436.00
C 287.00 426.00 287.00 416.00 287.00 406.00
C 258.67 406.00 230.33 406.00 202.00 406.00
C 219.05 408.06 232.77 420.70 240.00 436.00 Z"/>
</g>
<g fill="#58A9FC" fill-opacity="1.00" stroke="None">
<path d="
M 287.00 436.00 
C 291.40 436.00 300.03 437.72 304.00 436.00
C 311.23 420.70 324.95 408.06 342.00 406.00
C 323.67 406.00 305.33 406.00 287.00 406.00
C 287.00 416.00 287.00 426.00 287.00 436.00 Z"/>
</g>
<g fill="#4D3535" fill-opacity="0.98" stroke="None">
<path d="
M 304.00 436.00 
C 290.12 465.34 318.85 495.96 347.00 496.00 C 375.15 496.04 403.86 465.31 390.00 436.00
C 382.75 420.67 369.06 408.06 352.00 406.00
C 348.67 406.00 345.33 406.00 342.00 406.00
C 324.95 408.06 311.23 420.70 304.00 436.00
M 351.00 436.00 
C 369.35 440.27 362.25 470.70 343.33 465.67 C 324.41 460.64 331.85 431.55 351.00 436.00 Z"/>
</g>
<g fill="#59AAFD" fill-opacity="1.00" stroke="None">
<path d="
M 390.00 436.00 
C 400.67 436.00 411.33 436.00 422.00 436.00
C 422.00 426.00 422.00 416.00 422.00 406.00
C 398.67 406.00 375.33 406.00 352.00 406.00
C 369.06 408.06 382.75 420.67 390.00 436.00 Z"/>
</g>
<g fill="#FBF2E2" fill-opacity="1.00" stroke="None">
<path d="
M 201.00 436.00 
C 181.85 431.55 174.41 460.64 193.33 465.67 C 212.25 470.70 219.35 440.27 201.00 436.00 Z"/>
</g>
<g fill="#FAE5C8" fill-opacity="1.00" stroke="None">
<path d="
M 351.00 436.00 
C 331.85 431.55 324.41 460.64 343.33 465.67 C 362.25 470.70 369.35 440.27 351.00 436.00 Z"/>
</g>
</svg>