<svg xmlns="http://www.w3.org/2000/svg" xmlns:v="https://svgstorm.com"
viewBox = "0 0 512 512"
width="512"
height="512">
<g fill="None" fill-opacity="0.0" stroke="#000000" stroke-opacity="0.01" stroke-width="0.3"><path d="
M 0.00 512.00 
L 91.00 512.00
C 75.15 510.42 70.61 493.19 73.00 479.00
C 58.43 480.91 42.40 471.38 42.22 455.78 C 42.04 440.18 58.04 429.26 73.00 432.00
C 73.00 421.00 73.00 410.00 73.00 399.00
C 58.24 401.26 42.41 391.49 42.22 375.78 C 42.03 360.07 58.19 349.86 73.00 352.00
C 73.00 341.00 73.00 330.00 73.00 319.00
C 58.39 322.07 42.15 311.22 42.07 295.93 C 41.99 280.63 58.17 269.76 73.00 273.00
C 73.00 261.67 73.00 250.33 73.00 239.00
C 58.13 242.30 41.87 231.23 42.07 215.93 C 42.27 200.63 58.44 189.99 73.00 193.00
C 73.00 182.00 73.00 171.00 73.00 160.00
C 58.43 161.86 42.33 152.48 42.22 136.78 C 42.11 121.07 58.01 110.45 73.00 113.00
C 73.00 102.00 73.00 91.00 73.00 80.00
C 58.27 82.44 42.35 72.39 42.22 56.78 C 42.10 41.17 58.20 30.81 73.00 33.00
C 70.58 18.81 75.21 1.56 91.00 0.00
L 0.00 0.00
L 0.00 512.00 Z"/>
</g>
<g fill="None" fill-opacity="0.0" stroke="#000000" stroke-opacity="1.00" stroke-width="0.3"><path d="
M 91.00 512.00 
L 454.00 512.00
C 478.61 502.23 468.85 474.78 470.00 451.00 C 471.15 427.22 469.52 397.90 470.00 373.00 C 470.48 348.10 469.87 320.27 470.00 295.00 C 470.13 269.73 470.15 243.28 470.00 218.00 C 469.85 192.72 470.52 164.92 470.00 140.00 C 469.48 115.08 471.23 85.84 470.00 62.00 C 468.77 38.16 478.78 9.79 454.00 0.00
L 91.00 0.00
C 75.21 1.56 70.58 18.81 73.00 33.00
C 58.20 30.81 42.10 41.17 42.22 56.78 C 42.35 72.39 58.27 82.44 73.00 80.00
C 73.00 91.00 73.00 102.00 73.00 113.00
C 58.01 110.45 42.11 121.07 42.22 136.78 C 42.33 152.48 58.43 161.86 73.00 160.00
C 73.00 171.00 73.00 182.00 73.00 193.00
C 58.44 189.99 42.27 200.63 42.07 215.93 C 41.87 231.23 58.13 242.30 73.00 239.00
C 73.00 250.33 73.00 261.67 73.00 273.00
C 58.17 269.76 41.99 280.63 42.07 295.93 C 42.15 311.22 58.39 322.07 73.00 319.00
C 73.00 330.00 73.00 341.00 73.00 352.00
C 58.19 349.86 42.03 360.07 42.22 375.78 C 42.41 391.49 58.24 401.26 73.00 399.00
C 73.00 410.00 73.00 421.00 73.00 432.00
C 58.04 429.26 42.04 440.18 42.22 455.78 C 42.40 471.38 58.43 480.91 73.00 479.00
C 70.61 493.19 75.15 510.42 91.00 512.00
M 452.00 497.00 
C 440.27 500.86 425.43 495.25 413.00 497.00 C 400.57 498.75 386.75 496.21 374.00 497.00 C 361.25 497.79 347.90 496.63 335.00 497.00 C 322.10 497.37 308.99 496.80 296.00 497.00 C 283.01 497.20 270.07 496.84 257.00 497.00 C 243.93 497.16 231.21 496.78 218.00 497.00 C 204.79 497.22 192.48 496.57 179.00 497.00 C 165.52 497.43 154.07 496.08 140.00 497.00 C 125.93 497.92 116.37 494.97 101.00 497.00 C 85.63 499.03 87.21 484.02 88.00 471.00 C 88.79 457.98 87.64 445.01 88.00 432.00 C 88.36 418.99 87.84 406.00 88.00 393.00 C 88.16 380.00 87.93 367.00 88.00 354.00 C 88.07 341.00 87.97 328.00 88.00 315.00 C 88.03 302.00 87.99 289.00 88.00 276.00 C 88.01 263.00 88.00 249.99 88.00 237.00 C 88.00 224.01 88.02 210.99 88.00 198.00 C 87.98 185.01 88.04 171.97 88.00 159.00 C 87.96 146.03 88.09 132.93 88.00 120.00 C 87.91 107.07 88.20 93.85 88.00 81.00 C 87.80 68.15 88.44 54.67 88.00 42.00 C 87.56 29.33 84.85 13.36 100.00 15.00 C 115.15 16.64 125.03 14.25 139.00 15.00 C 152.97 15.75 164.57 14.65 178.00 15.00 C 191.43 15.35 203.81 14.82 217.00 15.00 C 230.19 15.18 242.93 14.86 256.00 15.00 C 269.07 15.14 282.00 14.80 295.00 15.00 C 308.00 15.20 321.08 14.62 334.00 15.00 C 346.92 15.38 360.20 14.17 373.00 15.00 C 385.80 15.83 399.46 13.18 412.00 15.00 C 424.54 16.82 440.10 11.08 452.00 15.00
C 460.30 17.73 454.87 33.10 456.00 41.00 C 457.13 48.90 455.48 62.87 456.00 72.00 C 456.52 81.13 455.77 92.26 456.00 102.00 C 456.23 111.74 455.90 122.97 456.00 133.00 C 456.10 143.03 455.95 153.88 456.00 164.00 C 456.05 174.12 455.98 183.83 456.00 194.00 C 456.02 204.17 455.99 214.78 456.00 225.00 C 456.01 235.22 456.00 245.81 456.00 256.00 C 456.00 266.19 456.01 275.83 456.00 286.00 C 455.99 296.17 456.02 306.85 456.00 317.00 C 455.98 327.15 456.05 336.89 456.00 347.00 C 455.95 357.11 456.11 367.97 456.00 378.00 C 455.89 388.03 456.25 399.26 456.00 409.00 C 455.75 418.74 456.57 429.88 456.00 439.00 C 455.43 448.12 457.22 462.12 456.00 470.00 C 454.78 477.88 460.42 494.23 452.00 497.00
M 73.00 48.00 
C 73.00 53.67 73.00 59.33 73.00 65.00
C 53.44 71.26 53.50 41.87 73.00 48.00
M 73.00 128.00 
C 73.00 133.67 73.00 139.33 73.00 145.00
C 53.53 151.14 53.42 121.75 73.00 128.00
M 73.00 208.00 
C 77.19 218.67 69.47 230.95 59.77 222.23 C 50.07 213.51 65.52 204.72 73.00 208.00
M 73.00 304.00 
C 67.32 305.06 58.53 304.05 57.68 297.32 C 56.82 290.59 60.87 287.53 68.01 287.01 C 75.15 286.49 72.89 298.46 73.00 304.00
M 73.00 367.00 
C 73.00 372.67 73.00 378.33 73.00 384.00
C 53.44 390.26 53.50 360.87 73.00 367.00
M 73.00 447.00 
C 73.00 452.67 73.00 458.33 73.00 464.00
C 53.53 470.14 53.42 440.75 73.00 447.00 Z"/>
</g>
<g fill="None" fill-opacity="0.0" stroke="#000000" stroke-opacity="0.02" stroke-width="0.3"><path d="
M 454.00 512.00 
L 512.00 512.00
L 512.00 0.00
L 454.00 0.00
C 478.78 9.79 468.77 38.16 470.00 62.00 C 471.23 85.84 469.48 115.08 470.00 140.00 C 470.52 164.92 469.85 192.72 470.00 218.00 C 470.15 243.28 470.13 269.73 470.00 295.00 C 469.87 320.27 470.48 348.10 470.00 373.00 C 469.52 397.90 471.15 427.22 470.00 451.00 C 468.85 474.78 478.61 502.23 454.00 512.00 Z"/>
</g>
<g fill="None" fill-opacity="0.0" stroke="#E68B37" stroke-opacity="1.00" stroke-width="0.3"><path d="
M 452.00 497.00 
C 445.90 498.46 436.32 494.49 429.00 496.00 C 421.68 497.51 412.49 494.87 405.00 496.00
C 404.33 475.16 406.33 453.01 404.00 433.00
C 400.65 440.97 381.13 436.49 374.00 437.00 C 366.87 437.51 347.33 440.63 347.01 429.99 C 346.69 419.35 365.45 421.04 373.00 422.00 C 380.55 422.96 399.67 418.02 404.00 426.00
C 405.95 390.84 405.95 352.08 404.00 317.00
C 400.05 326.39 381.69 319.43 372.00 321.00 C 362.31 322.57 346.15 320.27 335.00 321.00 C 323.85 321.73 309.83 320.61 298.00 321.00 C 286.17 321.39 273.17 320.70 261.00 321.00 C 248.83 321.30 236.40 320.59 224.00 321.00 C 211.60 321.41 199.67 320.21 187.00 321.00 C 174.33 321.79 163.17 319.30 150.00 321.00 C 136.83 322.70 135.90 305.76 149.00 306.00 C 162.11 306.25 173.35 305.86 186.00 306.00 C 198.65 306.14 210.60 305.89 223.00 306.00 C 235.40 306.11 247.81 305.84 260.00 306.00 C 272.19 306.16 285.11 305.67 297.00 306.00 C 308.89 306.33 322.70 305.29 334.00 306.00 C 345.30 306.71 360.99 304.44 371.00 306.00 C 381.01 307.56 399.01 300.81 404.00 310.00
C 405.18 288.83 404.37 265.07 404.00 244.00
C 398.98 257.59 376.82 249.39 364.00 251.00 C 351.18 252.61 331.25 250.32 317.00 251.00 C 302.75 251.68 284.73 250.78 270.00 251.00 C 255.27 251.22 237.59 251.10 223.00 251.00 C 208.41 250.90 189.72 251.49 176.00 251.00 C 162.28 250.51 142.77 256.02 139.01 240.99 C 135.25 225.97 140.32 208.44 158.00 212.00
C 159.37 162.29 199.98 115.36 249.00 107.00
C 248.09 98.39 244.13 83.00 254.08 78.08 C 264.03 73.16 277.30 72.75 288.08 76.92 C 298.85 81.10 295.37 98.29 295.00 107.00
C 303.00 108.10 311.37 111.20 318.68 114.32 C 325.99 117.44 332.35 121.79 338.75 126.25 C 345.14 130.72 350.24 135.43 355.75 141.25 C 361.27 147.06 364.55 152.31 368.92 159.08 C 373.29 165.85 376.62 172.71 379.32 180.68 C 382.02 188.64 384.67 197.99 385.00 207.00 C 385.33 216.01 402.46 209.12 404.00 220.00
C 404.59 152.89 405.64 83.86 405.00 16.00
C 420.50 15.33 437.32 17.33 452.00 15.00
C 440.10 11.08 424.54 16.82 412.00 15.00 C 399.46 13.18 385.80 15.83 373.00 15.00 C 360.20 14.17 346.92 15.38 334.00 15.00 C 321.08 14.62 308.00 15.20 295.00 15.00 C 282.00 14.80 269.07 15.14 256.00 15.00 C 242.93 14.86 230.19 15.18 217.00 15.00 C 203.81 14.82 191.43 15.35 178.00 15.00 C 164.57 14.65 152.97 15.75 139.00 15.00 C 125.03 14.25 115.15 16.64 100.00 15.00 C 84.85 13.36 87.56 29.33 88.00 42.00 C 88.44 54.67 87.80 68.15 88.00 81.00 C 88.20 93.85 87.91 107.07 88.00 120.00 C 88.09 132.93 87.96 146.03 88.00 159.00 C 88.04 171.97 87.98 185.01 88.00 198.00 C 88.02 210.99 88.00 224.01 88.00 237.00 C 88.00 249.99 88.01 263.00 88.00 276.00 C 87.99 289.00 88.03 302.00 88.00 315.00 C 87.97 328.00 88.07 341.00 88.00 354.00 C 87.93 367.00 88.16 380.00 88.00 393.00 C 87.84 406.00 88.36 418.99 88.00 432.00 C 87.64 445.01 88.79 457.98 88.00 471.00 C 87.21 484.02 85.63 499.03 101.00 497.00 C 116.37 494.97 125.93 497.92 140.00 497.00 C 154.07 496.08 165.52 497.43 179.00 497.00 C 192.48 496.57 204.79 497.22 218.00 497.00 C 231.21 496.78 243.93 497.16 257.00 497.00 C 270.07 496.84 283.01 497.20 296.00 497.00 C 308.99 496.80 322.10 497.37 335.00 497.00 C 347.90 496.63 361.25 497.79 374.00 497.00 C 386.75 496.21 400.57 498.75 413.00 497.00 C 425.43 495.25 440.27 500.86 452.00 497.00
M 161.00 363.00 
C 156.26 373.69 164.33 390.69 159.00 401.00
C 154.23 410.23 145.17 399.86 148.00 392.00 C 150.83 384.15 145.75 373.87 148.00 366.00 C 150.25 358.13 144.43 347.98 148.93 340.93 C 153.43 333.88 162.58 342.37 164.30 347.70 C 166.03 353.02 171.20 360.69 175.00 364.00
C 175.91 356.65 183.13 352.92 184.75 345.75 C 186.38 338.59 200.69 335.29 199.99 345.01 C 199.30 354.73 201.76 363.62 200.00 373.00 C 198.24 382.38 204.00 391.93 200.00 401.00 C 196.00 410.07 184.43 399.59 188.00 391.00 C 191.57 382.41 186.16 370.91 187.00 363.00
C 183.61 367.10 180.95 382.92 173.97 382.97 C 167.00 383.02 164.37 367.04 161.00 363.00
M 233.00 349.00 
C 233.00 355.00 233.00 361.00 233.00 367.00
C 237.33 370.03 249.14 362.08 249.92 371.08 C 250.71 380.07 236.78 373.36 233.00 376.00
C 233.00 382.00 233.00 388.00 233.00 394.00
C 240.56 399.29 252.32 387.78 259.74 395.26 C 267.16 402.73 251.25 406.58 245.00 404.00 C 238.75 401.42 222.63 409.00 221.03 399.97 C 219.43 390.95 221.65 381.30 221.00 372.00 C 220.35 362.70 221.17 353.55 221.00 344.00 C 220.83 334.45 237.73 340.92 244.00 339.00 C 250.27 337.08 266.67 339.14 260.23 347.23 C 253.79 355.31 240.23 343.94 233.00 349.00
M 309.00 376.00 
C 308.31 372.04 310.58 363.92 310.00 359.00 C 309.42 354.08 308.98 345.92 311.00 342.00
C 315.09 334.09 323.99 340.97 322.00 349.00 C 320.01 357.03 323.02 365.72 322.00 374.00 C 320.98 382.28 322.74 390.50 322.00 399.00 C 321.26 407.50 309.80 404.26 308.08 397.92 C 306.35 391.58 301.55 387.60 299.23 381.77 C 296.91 375.94 293.77 370.64 290.00 366.00
C 291.45 374.49 288.06 383.57 290.00 392.00 C 291.94 400.43 285.47 409.19 279.00 401.00
C 275.38 394.29 277.95 380.10 278.00 372.00 C 278.05 363.90 275.46 348.85 279.00 342.00
C 285.04 330.32 294.10 347.13 297.30 352.70 C 300.51 358.26 304.24 371.24 309.00 376.00
M 352.00 339.00 
C 358.08 342.04 352.11 357.49 354.00 364.00 C 355.89 370.51 351.67 383.02 355.33 389.67 C 358.99 396.33 371.06 395.87 373.30 388.30 C 375.55 380.74 372.06 369.48 374.00 362.00 C 375.94 354.52 368.33 341.87 378.03 339.03 C 387.72 336.18 386.67 351.89 386.00 359.00 C 385.33 366.11 386.62 378.87 386.00 386.00 C 385.38 393.13 382.51 399.59 375.77 402.77 C 369.03 405.95 359.14 405.76 352.32 402.68 C 345.50 399.60 342.94 392.14 343.00 385.00 C 343.06 377.86 343.15 364.74 343.00 358.00 C 342.85 351.26 340.44 333.22 352.00 339.00
M 321.00 422.00 
C 331.57 424.95 325.88 439.56 315.00 437.00 C 304.12 434.44 292.13 438.22 281.00 437.00 C 269.87 435.78 258.24 437.68 247.00 437.00 C 235.76 436.32 224.29 437.61 213.00 437.00 C 201.71 436.39 190.30 437.94 179.00 437.00 C 167.70 436.06 156.30 438.90 145.00 437.00 C 133.70 435.10 139.97 419.41 151.00 422.00 C 162.03 424.59 173.83 420.74 185.00 422.00 C 196.17 423.26 207.80 421.22 219.00 422.00 C 230.20 422.78 241.86 421.18 253.00 422.00 C 264.14 422.82 276.04 420.59 287.00 422.00 C 297.96 423.41 310.47 419.06 321.00 422.00 Z"/>
</g>
<g fill="None" fill-opacity="0.0" stroke="#D18030" stroke-opacity="1.00" stroke-width="0.3"><path d="
M 404.00 220.00 
C 403.93 227.43 403.87 236.55 404.00 244.00
C 404.37 265.07 405.18 288.83 404.00 310.00
C 403.89 312.01 403.89 314.93 404.00 317.00
C 405.95 352.08 405.95 390.84 404.00 426.00
C 403.89 428.01 403.89 430.93 404.00 433.00
C 406.33 453.01 404.33 475.16 405.00 496.00
C 412.49 494.87 421.68 497.51 429.00 496.00 C 436.32 494.49 445.90 498.46 452.00 497.00
C 460.42 494.23 454.78 477.88 456.00 470.00 C 457.22 462.12 455.43 448.12 456.00 439.00 C 456.57 429.88 455.75 418.74 456.00 409.00 C 456.25 399.26 455.89 388.03 456.00 378.00 C 456.11 367.97 455.95 357.11 456.00 347.00 C 456.05 336.89 455.98 327.15 456.00 317.00 C 456.02 306.85 455.99 296.17 456.00 286.00 C 456.01 275.83 456.00 266.19 456.00 256.00 C 456.00 245.81 456.01 235.22 456.00 225.00 C 455.99 214.78 456.02 204.17 456.00 194.00 C 455.98 183.83 456.05 174.12 456.00 164.00 C 455.95 153.88 456.10 143.03 456.00 133.00 C 455.90 122.97 456.23 111.74 456.00 102.00 C 455.77 92.26 456.52 81.13 456.00 72.00 C 455.48 62.87 457.13 48.90 456.00 41.00 C 454.87 33.10 460.30 17.73 452.00 15.00
C 437.32 17.33 420.50 15.33 405.00 16.00
C 405.64 83.86 404.59 152.89 404.00 220.00 Z"/>
</g>
<g fill="None" fill-opacity="0.0" stroke="#CECCCA" stroke-opacity="1.00" stroke-width="0.3"><path d="
M 73.00 48.00 
C 53.50 41.87 53.44 71.26 73.00 65.00
C 73.00 59.33 73.00 53.67 73.00 48.00 Z"/>
</g>
<g fill="None" fill-opacity="0.0" stroke="#000000" stroke-opacity="1.00" stroke-width="0.3"><path d="
M 404.00 244.00 
C 403.87 236.55 403.93 227.43 404.00 220.00
C 402.46 209.12 385.33 216.01 385.00 207.00 C 384.67 197.99 382.02 188.64 379.32 180.68 C 376.62 172.71 373.29 165.85 368.92 159.08 C 364.55 152.31 361.27 147.06 355.75 141.25 C 350.24 135.43 345.14 130.72 338.75 126.25 C 332.35 121.79 325.99 117.44 318.68 114.32 C 311.37 111.20 303.00 108.10 295.00 107.00
C 295.37 98.29 298.85 81.10 288.08 76.92 C 277.30 72.75 264.03 73.16 254.08 78.08 C 244.13 83.00 248.09 98.39 249.00 107.00
C 199.98 115.36 159.37 162.29 158.00 212.00
C 140.32 208.44 135.25 225.97 139.01 240.99 C 142.77 256.02 162.28 250.51 176.00 251.00 C 189.72 251.49 208.41 250.90 223.00 251.00 C 237.59 251.10 255.27 251.22 270.00 251.00 C 284.73 250.78 302.75 251.68 317.00 251.00 C 331.25 250.32 351.18 252.61 364.00 251.00 C 376.82 249.39 398.98 257.59 404.00 244.00
M 279.00 104.00 
C 277.14 105.86 265.73 106.01 264.00 104.00
C 261.65 101.28 264.16 93.34 263.00 90.00
C 269.00 90.00 275.00 90.00 281.00 90.00
C 279.78 94.42 280.87 100.14 279.00 104.00
M 320.00 212.00 
C 308.47 212.00 293.15 211.77 282.00 212.00 C 270.85 212.23 253.75 211.38 244.00 212.00 C 234.25 212.62 213.50 207.47 214.00 220.00 C 214.51 232.54 236.11 225.70 246.00 227.00 C 255.89 228.30 272.79 226.22 284.00 227.00 C 295.21 227.78 310.45 226.23 322.00 227.00 C 333.55 227.77 348.86 225.71 360.00 227.00 C 371.14 228.29 391.48 220.76 390.00 236.00
C 311.33 236.00 232.67 236.00 154.00 236.00
C 154.00 233.00 154.00 230.00 154.00 227.00
C 165.51 222.96 179.12 232.80 190.07 226.07 C 201.02 219.35 181.98 205.31 173.00 212.00
C 175.23 167.21 212.87 125.20 258.00 121.00
C 313.00 113.32 368.54 155.15 370.00 212.00
C 353.33 212.00 336.67 212.00 320.00 212.00 Z"/>
</g>
<g fill="None" fill-opacity="0.0" stroke="#FBFBFB" stroke-opacity="1.00" stroke-width="0.3"><path d="
M 264.00 104.00 
C 267.77 102.24 275.64 106.35 279.00 104.00
C 280.87 100.14 279.78 94.42 281.00 90.00
C 275.00 90.00 269.00 90.00 263.00 90.00
C 264.16 93.34 261.65 101.28 264.00 104.00 Z"/>
</g>
<g fill="None" fill-opacity="0.0" stroke="#717171" stroke-opacity="1.00" stroke-width="0.3"><path d="
M 279.00 104.00 
C 275.64 106.35 267.77 102.24 264.00 104.00
C 265.73 106.01 277.14 105.86 279.00 104.00 Z"/>
</g>
<g fill="None" fill-opacity="0.0" stroke="#C8C8C8" stroke-opacity="1.00" stroke-width="0.3"><path d="
M 258.00 121.00 
C 269.60 123.45 277.94 134.97 287.75 142.25 C 297.56 149.53 303.02 161.38 308.93 172.07 C 314.83 182.77 319.29 199.25 320.00 212.00
C 336.67 212.00 353.33 212.00 370.00 212.00
C 368.54 155.15 313.00 113.32 258.00 121.00 Z"/>
</g>
<g fill="None" fill-opacity="0.0" stroke="#DEDEDD" stroke-opacity="1.00" stroke-width="0.3"><path d="
M 320.00 212.00 
C 319.29 199.25 314.83 182.77 308.93 172.07 C 303.02 161.38 297.56 149.53 287.75 142.25 C 277.94 134.97 269.60 123.45 258.00 121.00
C 212.87 125.20 175.23 167.21 173.00 212.00
C 181.98 205.31 201.02 219.35 190.07 226.07 C 179.12 232.80 165.51 222.96 154.00 227.00
C 154.00 230.00 154.00 233.00 154.00 236.00
C 232.67 236.00 311.33 236.00 390.00 236.00
C 391.48 220.76 371.14 228.29 360.00 227.00 C 348.86 225.71 333.55 227.77 322.00 227.00 C 310.45 226.23 295.21 227.78 284.00 227.00 C 272.79 226.22 255.89 228.30 246.00 227.00 C 236.11 225.70 214.51 232.54 214.00 220.00 C 213.50 207.47 234.25 212.62 244.00 212.00 C 253.75 211.38 270.85 212.23 282.00 212.00 C 293.15 211.77 308.47 212.00 320.00 212.00 Z"/>
</g>
<g fill="None" fill-opacity="0.0" stroke="#CECDCB" stroke-opacity="1.00" stroke-width="0.3"><path d="
M 73.00 128.00 
C 53.42 121.75 53.53 151.14 73.00 145.00
C 73.00 139.33 73.00 133.67 73.00 128.00 Z"/>
</g>
<g fill="None" fill-opacity="0.0" stroke="#CECCCA" stroke-opacity="1.00" stroke-width="0.3"><path d="
M 73.00 208.00 
C 65.52 204.72 50.07 213.51 59.77 222.23 C 69.47 230.95 77.19 218.67 73.00 208.00 Z"/>
</g>
<g fill="None" fill-opacity="0.0" stroke="#CECCCA" stroke-opacity="1.00" stroke-width="0.3"><path d="
M 73.00 304.00 
C 72.89 298.46 75.15 286.49 68.01 287.01 C 60.87 287.53 56.82 290.59 57.68 297.32 C 58.53 304.05 67.32 305.06 73.00 304.00 Z"/>
</g>
<g fill="None" fill-opacity="0.0" stroke="#000000" stroke-opacity="1.00" stroke-width="0.3"><path d="
M 404.00 317.00 
C 403.89 314.93 403.89 312.01 404.00 310.00
C 399.01 300.81 381.01 307.56 371.00 306.00 C 360.99 304.44 345.30 306.71 334.00 306.00 C 322.70 305.29 308.89 306.33 297.00 306.00 C 285.11 305.67 272.19 306.16 260.00 306.00 C 247.81 305.84 235.40 306.11 223.00 306.00 C 210.60 305.89 198.65 306.14 186.00 306.00 C 173.35 305.86 162.11 306.25 149.00 306.00 C 135.90 305.76 136.83 322.70 150.00 321.00 C 163.17 319.30 174.33 321.79 187.00 321.00 C 199.67 320.21 211.60 321.41 224.00 321.00 C 236.40 320.59 248.83 321.30 261.00 321.00 C 273.17 320.70 286.17 321.39 298.00 321.00 C 309.83 320.61 323.85 321.73 335.00 321.00 C 346.15 320.27 362.31 322.57 372.00 321.00 C 381.69 319.43 400.05 326.39 404.00 317.00 Z"/>
</g>
<g fill="None" fill-opacity="0.0" stroke="#000000" stroke-opacity="1.00" stroke-width="0.3"><path d="
M 159.00 401.00 
C 160.55 396.42 158.42 384.27 159.00 380.00 C 159.58 375.73 158.17 361.00 161.00 363.00
C 164.37 367.04 167.00 383.02 173.97 382.97 C 180.95 382.92 183.61 367.10 187.00 363.00
C 186.16 370.91 191.57 382.41 188.00 391.00 C 184.43 399.59 196.00 410.07 200.00 401.00 C 204.00 391.93 198.24 382.38 200.00 373.00 C 201.76 363.62 199.30 354.73 199.99 345.01 C 200.69 335.29 186.38 338.59 184.75 345.75 C 183.13 352.92 175.91 356.65 175.00 364.00
C 171.20 360.69 166.03 353.02 164.30 347.70 C 162.58 342.37 153.43 333.88 148.93 340.93 C 144.43 347.98 150.25 358.13 148.00 366.00 C 145.75 373.87 150.83 384.15 148.00 392.00 C 145.17 399.86 154.23 410.23 159.00 401.00 Z"/>
</g>
<g fill="None" fill-opacity="0.0" stroke="#000000" stroke-opacity="1.00" stroke-width="0.3"><path d="
M 233.00 394.00 
C 230.95 392.57 231.02 377.38 233.00 376.00
C 236.78 373.36 250.71 380.07 249.92 371.08 C 249.14 362.08 237.33 370.03 233.00 367.00
C 230.95 365.57 231.02 350.38 233.00 349.00
C 240.23 343.94 253.79 355.31 260.23 347.23 C 266.67 339.14 250.27 337.08 244.00 339.00 C 237.73 340.92 220.83 334.45 221.00 344.00 C 221.17 353.55 220.35 362.70 221.00 372.00 C 221.65 381.30 219.43 390.95 221.03 399.97 C 222.63 409.00 238.75 401.42 245.00 404.00 C 251.25 406.58 267.16 402.73 259.74 395.26 C 252.32 387.78 240.56 399.29 233.00 394.00 Z"/>
</g>
<g fill="None" fill-opacity="0.0" stroke="#000000" stroke-opacity="1.00" stroke-width="0.3"><path d="
M 279.00 342.00 
C 276.40 349.69 278.84 362.75 279.00 371.00 C 279.16 379.25 276.24 393.25 279.00 401.00
C 285.47 409.19 291.94 400.43 290.00 392.00 C 288.06 383.57 291.45 374.49 290.00 366.00
C 293.77 370.64 296.91 375.94 299.23 381.77 C 301.55 387.60 306.35 391.58 308.08 397.92 C 309.80 404.26 321.26 407.50 322.00 399.00 C 322.74 390.50 320.98 382.28 322.00 374.00 C 323.02 365.72 320.01 357.03 322.00 349.00 C 323.99 340.97 315.09 334.09 311.00 342.00
C 307.36 352.77 313.73 366.92 311.00 378.00
C 310.17 377.59 309.13 377.03 309.00 376.00
C 304.24 371.24 300.51 358.26 297.30 352.70 C 294.10 347.13 285.04 330.32 279.00 342.00 Z"/>
</g>
<g fill="None" fill-opacity="0.0" stroke="#000000" stroke-opacity="1.00" stroke-width="0.3"><path d="
M 352.00 339.00 
C 340.44 333.22 342.85 351.26 343.00 358.00 C 343.15 364.74 343.06 377.86 343.00 385.00 C 342.94 392.14 345.50 399.60 352.32 402.68 C 359.14 405.76 369.03 405.95 375.77 402.77 C 382.51 399.59 385.38 393.13 386.00 386.00 C 386.62 378.87 385.33 366.11 386.00 359.00 C 386.67 351.89 387.72 336.18 378.03 339.03 C 368.33 341.87 375.94 354.52 374.00 362.00 C 372.06 369.48 375.55 380.74 373.30 388.30 C 371.06 395.87 358.99 396.33 355.33 389.67 C 351.67 383.02 355.89 370.51 354.00 364.00 C 352.11 357.49 358.08 342.04 352.00 339.00 Z"/>
</g>
<g fill="None" fill-opacity="0.0" stroke="#74461C" stroke-opacity="1.00" stroke-width="0.3"><path d="
M 279.00 401.00 
C 276.24 393.25 279.16 379.25 279.00 371.00 C 278.84 362.75 276.40 349.69 279.00 342.00
C 275.46 348.85 278.05 363.90 278.00 372.00 C 277.95 380.10 275.38 394.29 279.00 401.00 Z"/>
</g>
<g fill="None" fill-opacity="0.0" stroke="#5E3917" stroke-opacity="1.00" stroke-width="0.3"><path d="
M 309.00 376.00 
C 309.13 377.03 310.17 377.59 311.00 378.00
C 313.73 366.92 307.36 352.77 311.00 342.00
C 308.98 345.92 309.42 354.08 310.00 359.00 C 310.58 363.92 308.31 372.04 309.00 376.00 Z"/>
</g>
<g fill="None" fill-opacity="0.0" stroke="#73451B" stroke-opacity="1.00" stroke-width="0.3"><path d="
M 233.00 367.00 
C 233.00 361.00 233.00 355.00 233.00 349.00
C 231.02 350.38 230.95 365.57 233.00 367.00 Z"/>
</g>
<g fill="None" fill-opacity="0.0" stroke="#5D3816" stroke-opacity="1.00" stroke-width="0.3"><path d="
M 159.00 401.00 
C 164.33 390.69 156.26 373.69 161.00 363.00
C 158.17 361.00 159.58 375.73 159.00 380.00 C 158.42 384.27 160.55 396.42 159.00 401.00 Z"/>
</g>
<g fill="None" fill-opacity="0.0" stroke="#CFCDCB" stroke-opacity="1.00" stroke-width="0.3"><path d="
M 73.00 367.00 
C 53.50 360.87 53.44 390.26 73.00 384.00
C 73.00 378.33 73.00 372.67 73.00 367.00 Z"/>
</g>
<g fill="None" fill-opacity="0.0" stroke="#73451B" stroke-opacity="1.00" stroke-width="0.3"><path d="
M 233.00 394.00 
C 233.00 388.00 233.00 382.00 233.00 376.00
C 231.02 377.38 230.95 392.57 233.00 394.00 Z"/>
</g>
<g fill="None" fill-opacity="0.0" stroke="#000000" stroke-opacity="1.00" stroke-width="0.3"><path d="
M 321.00 422.00 
C 310.47 419.06 297.96 423.41 287.00 422.00 C 276.04 420.59 264.14 422.82 253.00 422.00 C 241.86 421.18 230.20 422.78 219.00 422.00 C 207.80 421.22 196.17 423.26 185.00 422.00 C 173.83 420.74 162.03 424.59 151.00 422.00 C 139.97 419.41 133.70 435.10 145.00 437.00 C 156.30 438.90 167.70 436.06 179.00 437.00 C 190.30 437.94 201.71 436.39 213.00 437.00 C 224.29 437.61 235.76 436.32 247.00 437.00 C 258.24 437.68 269.87 435.78 281.00 437.00 C 292.13 438.22 304.12 434.44 315.00 437.00 C 325.88 439.56 331.57 424.95 321.00 422.00 Z"/>
</g>
<g fill="None" fill-opacity="0.0" stroke="#000000" stroke-opacity="1.00" stroke-width="0.3"><path d="
M 404.00 433.00 
C 403.89 430.93 403.89 428.01 404.00 426.00
C 399.67 418.02 380.55 422.96 373.00 422.00 C 365.45 421.04 346.69 419.35 347.01 429.99 C 347.33 440.63 366.87 437.51 374.00 437.00 C 381.13 436.49 400.65 440.97 404.00 433.00 Z"/>
</g>
<g fill="None" fill-opacity="0.0" stroke="#CECCCA" stroke-opacity="1.00" stroke-width="0.3"><path d="
M 73.00 447.00 
C 53.42 440.75 53.53 470.14 73.00 464.00
C 73.00 458.33 73.00 452.67 73.00 447.00 Z"/>
</g>
<g fill="#000000" fill-opacity="0.01" stroke="None">
<path d="
M 0.00 512.00 
L 91.00 512.00
C 75.15 510.42 70.61 493.19 73.00 479.00
C 58.43 480.91 42.40 471.38 42.22 455.78 C 42.04 440.18 58.04 429.26 73.00 432.00
C 73.00 421.00 73.00 410.00 73.00 399.00
C 58.24 401.26 42.41 391.49 42.22 375.78 C 42.03 360.07 58.19 349.86 73.00 352.00
C 73.00 341.00 73.00 330.00 73.00 319.00
C 58.39 322.07 42.15 311.22 42.07 295.93 C 41.99 280.63 58.17 269.76 73.00 273.00
C 73.00 261.67 73.00 250.33 73.00 239.00
C 58.13 242.30 41.87 231.23 42.07 215.93 C 42.27 200.63 58.44 189.99 73.00 193.00
C 73.00 182.00 73.00 171.00 73.00 160.00
C 58.43 161.86 42.33 152.48 42.22 136.78 C 42.11 121.07 58.01 110.45 73.00 113.00
C 73.00 102.00 73.00 91.00 73.00 80.00
C 58.27 82.44 42.35 72.39 42.22 56.78 C 42.10 41.17 58.20 30.81 73.00 33.00
C 70.58 18.81 75.21 1.56 91.00 0.00
L 0.00 0.00
L 0.00 512.00 Z"/>
</g>
<g fill="#000000" fill-opacity="1.00" stroke="None">
<path d="
M 91.00 512.00 
L 454.00 512.00
C 478.61 502.23 468.85 474.78 470.00 451.00 C 471.15 427.22 469.52 397.90 470.00 373.00 C 470.48 348.10 469.87 320.27 470.00 295.00 C 470.13 269.73 470.15 243.28 470.00 218.00 C 469.85 192.72 470.52 164.92 470.00 140.00 C 469.48 115.08 471.23 85.84 470.00 62.00 C 468.77 38.16 478.78 9.79 454.00 0.00
L 91.00 0.00
C 75.21 1.56 70.58 18.81 73.00 33.00
C 58.20 30.81 42.10 41.17 42.22 56.78 C 42.35 72.39 58.27 82.44 73.00 80.00
C 73.00 91.00 73.00 102.00 73.00 113.00
C 58.01 110.45 42.11 121.07 42.22 136.78 C 42.33 152.48 58.43 161.86 73.00 160.00
C 73.00 171.00 73.00 182.00 73.00 193.00
C 58.44 189.99 42.27 200.63 42.07 215.93 C 41.87 231.23 58.13 242.30 73.00 239.00
C 73.00 250.33 73.00 261.67 73.00 273.00
C 58.17 269.76 41.99 280.63 42.07 295.93 C 42.15 311.22 58.39 322.07 73.00 319.00
C 73.00 330.00 73.00 341.00 73.00 352.00
C 58.19 349.86 42.03 360.07 42.22 375.78 C 42.41 391.49 58.24 401.26 73.00 399.00
C 73.00 410.00 73.00 421.00 73.00 432.00
C 58.04 429.26 42.04 440.18 42.22 455.78 C 42.40 471.38 58.43 480.91 73.00 479.00
C 70.61 493.19 75.15 510.42 91.00 512.00
M 452.00 497.00 
C 440.27 500.86 425.43 495.25 413.00 497.00 C 400.57 498.75 386.75 496.21 374.00 497.00 C 361.25 497.79 347.90 496.63 335.00 497.00 C 322.10 497.37 308.99 496.80 296.00 497.00 C 283.01 497.20 270.07 496.84 257.00 497.00 C 243.93 497.16 231.21 496.78 218.00 497.00 C 204.79 497.22 192.48 496.57 179.00 497.00 C 165.52 497.43 154.07 496.08 140.00 497.00 C 125.93 497.92 116.37 494.97 101.00 497.00 C 85.63 499.03 87.21 484.02 88.00 471.00 C 88.79 457.98 87.64 445.01 88.00 432.00 C 88.36 418.99 87.84 406.00 88.00 393.00 C 88.16 380.00 87.93 367.00 88.00 354.00 C 88.07 341.00 87.97 328.00 88.00 315.00 C 88.03 302.00 87.99 289.00 88.00 276.00 C 88.01 263.00 88.00 249.99 88.00 237.00 C 88.00 224.01 88.02 210.99 88.00 198.00 C 87.98 185.01 88.04 171.97 88.00 159.00 C 87.96 146.03 88.09 132.93 88.00 120.00 C 87.91 107.07 88.20 93.85 88.00 81.00 C 87.80 68.15 88.44 54.67 88.00 42.00 C 87.56 29.33 84.85 13.36 100.00 15.00 C 115.15 16.64 125.03 14.25 139.00 15.00 C 152.97 15.75 164.57 14.65 178.00 15.00 C 191.43 15.35 203.81 14.82 217.00 15.00 C 230.19 15.18 242.93 14.86 256.00 15.00 C 269.07 15.14 282.00 14.80 295.00 15.00 C 308.00 15.20 321.08 14.62 334.00 15.00 C 346.92 15.38 360.20 14.17 373.00 15.00 C 385.80 15.83 399.46 13.18 412.00 15.00 C 424.54 16.82 440.10 11.08 452.00 15.00
C 460.30 17.73 454.87 33.10 456.00 41.00 C 457.13 48.90 455.48 62.87 456.00 72.00 C 456.52 81.13 455.77 92.26 456.00 102.00 C 456.23 111.74 455.90 122.97 456.00 133.00 C 456.10 143.03 455.95 153.88 456.00 164.00 C 456.05 174.12 455.98 183.83 456.00 194.00 C 456.02 204.17 455.99 214.78 456.00 225.00 C 456.01 235.22 456.00 245.81 456.00 256.00 C 456.00 266.19 456.01 275.83 456.00 286.00 C 455.99 296.17 456.02 306.85 456.00 317.00 C 455.98 327.15 456.05 336.89 456.00 347.00 C 455.95 357.11 456.11 367.97 456.00 378.00 C 455.89 388.03 456.25 399.26 456.00 409.00 C 455.75 418.74 456.57 429.88 456.00 439.00 C 455.43 448.12 457.22 462.12 456.00 470.00 C 454.78 477.88 460.42 494.23 452.00 497.00
M 73.00 48.00 
C 73.00 53.67 73.00 59.33 73.00 65.00
C 53.44 71.26 53.50 41.87 73.00 48.00
M 73.00 128.00 
C 73.00 133.67 73.00 139.33 73.00 145.00
C 53.53 151.14 53.42 121.75 73.00 128.00
M 73.00 208.00 
C 77.19 218.67 69.47 230.95 59.77 222.23 C 50.07 213.51 65.52 204.72 73.00 208.00
M 73.00 304.00 
C 67.32 305.06 58.53 304.05 57.68 297.32 C 56.82 290.59 60.87 287.53 68.01 287.01 C 75.15 286.49 72.89 298.46 73.00 304.00
M 73.00 367.00 
C 73.00 372.67 73.00 378.33 73.00 384.00
C 53.44 390.26 53.50 360.87 73.00 367.00
M 73.00 447.00 
C 73.00 452.67 73.00 458.33 73.00 464.00
C 53.53 470.14 53.42 440.75 73.00 447.00 Z"/>
</g>
<g fill="#000000" fill-opacity="0.02" stroke="None">
<path d="
M 454.00 512.00 
L 512.00 512.00
L 512.00 0.00
L 454.00 0.00
C 478.78 9.79 468.77 38.16 470.00 62.00 C 471.23 85.84 469.48 115.08 470.00 140.00 C 470.52 164.92 469.85 192.72 470.00 218.00 C 470.15 243.28 470.13 269.73 470.00 295.00 C 469.87 320.27 470.48 348.10 470.00 373.00 C 469.52 397.90 471.15 427.22 470.00 451.00 C 468.85 474.78 478.61 502.23 454.00 512.00 Z"/>
</g>
<g fill="#E68B37" fill-opacity="1.00" stroke="None">
<path d="
M 452.00 497.00 
C 445.90 498.46 436.32 494.49 429.00 496.00 C 421.68 497.51 412.49 494.87 405.00 496.00
C 404.33 475.16 406.33 453.01 404.00 433.00
C 400.65 440.97 381.13 436.49 374.00 437.00 C 366.87 437.51 347.33 440.63 347.01 429.99 C 346.69 419.35 365.45 421.04 373.00 422.00 C 380.55 422.96 399.67 418.02 404.00 426.00
C 405.95 390.84 405.95 352.08 404.00 317.00
C 400.05 326.39 381.69 319.43 372.00 321.00 C 362.31 322.57 346.15 320.27 335.00 321.00 C 323.85 321.73 309.83 320.61 298.00 321.00 C 286.17 321.39 273.17 320.70 261.00 321.00 C 248.83 321.30 236.40 320.59 224.00 321.00 C 211.60 321.41 199.67 320.21 187.00 321.00 C 174.33 321.79 163.17 319.30 150.00 321.00 C 136.83 322.70 135.90 305.76 149.00 306.00 C 162.11 306.25 173.35 305.86 186.00 306.00 C 198.65 306.14 210.60 305.89 223.00 306.00 C 235.40 306.11 247.81 305.84 260.00 306.00 C 272.19 306.16 285.11 305.67 297.00 306.00 C 308.89 306.33 322.70 305.29 334.00 306.00 C 345.30 306.71 360.99 304.44 371.00 306.00 C 381.01 307.56 399.01 300.81 404.00 310.00
C 405.18 288.83 404.37 265.07 404.00 244.00
C 398.98 257.59 376.82 249.39 364.00 251.00 C 351.18 252.61 331.25 250.32 317.00 251.00 C 302.75 251.68 284.73 250.78 270.00 251.00 C 255.27 251.22 237.59 251.10 223.00 251.00 C 208.41 250.90 189.72 251.49 176.00 251.00 C 162.28 250.51 142.77 256.02 139.01 240.99 C 135.25 225.97 140.32 208.44 158.00 212.00
C 159.37 162.29 199.98 115.36 249.00 107.00
C 248.09 98.39 244.13 83.00 254.08 78.08 C 264.03 73.16 277.30 72.75 288.08 76.92 C 298.85 81.10 295.37 98.29 295.00 107.00
C 303.00 108.10 311.37 111.20 318.68 114.32 C 325.99 117.44 332.35 121.79 338.75 126.25 C 345.14 130.72 350.24 135.43 355.75 141.25 C 361.27 147.06 364.55 152.31 368.92 159.08 C 373.29 165.85 376.62 172.71 379.32 180.68 C 382.02 188.64 384.67 197.99 385.00 207.00 C 385.33 216.01 402.46 209.12 404.00 220.00
C 404.59 152.89 405.64 83.86 405.00 16.00
C 420.50 15.33 437.32 17.33 452.00 15.00
C 440.10 11.08 424.54 16.82 412.00 15.00 C 399.46 13.18 385.80 15.83 373.00 15.00 C 360.20 14.17 346.92 15.38 334.00 15.00 C 321.08 14.62 308.00 15.20 295.00 15.00 C 282.00 14.80 269.07 15.14 256.00 15.00 C 242.93 14.86 230.19 15.18 217.00 15.00 C 203.81 14.82 191.43 15.35 178.00 15.00 C 164.57 14.65 152.97 15.75 139.00 15.00 C 125.03 14.25 115.15 16.64 100.00 15.00 C 84.85 13.36 87.56 29.33 88.00 42.00 C 88.44 54.67 87.80 68.15 88.00 81.00 C 88.20 93.85 87.91 107.07 88.00 120.00 C 88.09 132.93 87.96 146.03 88.00 159.00 C 88.04 171.97 87.98 185.01 88.00 198.00 C 88.02 210.99 88.00 224.01 88.00 237.00 C 88.00 249.99 88.01 263.00 88.00 276.00 C 87.99 289.00 88.03 302.00 88.00 315.00 C 87.97 328.00 88.07 341.00 88.00 354.00 C 87.93 367.00 88.16 380.00 88.00 393.00 C 87.84 406.00 88.36 418.99 88.00 432.00 C 87.64 445.01 88.79 457.98 88.00 471.00 C 87.21 484.02 85.63 499.03 101.00 497.00 C 116.37 494.97 125.93 497.92 140.00 497.00 C 154.07 496.08 165.52 497.43 179.00 497.00 C 192.48 496.57 204.79 497.22 218.00 497.00 C 231.21 496.78 243.93 497.16 257.00 497.00 C 270.07 496.84 283.01 497.20 296.00 497.00 C 308.99 496.80 322.10 497.37 335.00 497.00 C 347.90 496.63 361.25 497.79 374.00 497.00 C 386.75 496.21 400.57 498.75 413.00 497.00 C 425.43 495.25 440.27 500.86 452.00 497.00
M 161.00 363.00 
C 156.26 373.69 164.33 390.69 159.00 401.00
C 154.23 410.23 145.17 399.86 148.00 392.00 C 150.83 384.15 145.75 373.87 148.00 366.00 C 150.25 358.13 144.43 347.98 148.93 340.93 C 153.43 333.88 162.58 342.37 164.30 347.70 C 166.03 353.02 171.20 360.69 175.00 364.00
C 175.91 356.65 183.13 352.92 184.75 345.75 C 186.38 338.59 200.69 335.29 199.99 345.01 C 199.30 354.73 201.76 363.62 200.00 373.00 C 198.24 382.38 204.00 391.93 200.00 401.00 C 196.00 410.07 184.43 399.59 188.00 391.00 C 191.57 382.41 186.16 370.91 187.00 363.00
C 183.61 367.10 180.95 382.92 173.97 382.97 C 167.00 383.02 164.37 367.04 161.00 363.00
M 233.00 349.00 
C 233.00 355.00 233.00 361.00 233.00 367.00
C 237.33 370.03 249.14 362.08 249.92 371.08 C 250.71 380.07 236.78 373.36 233.00 376.00
C 233.00 382.00 233.00 388.00 233.00 394.00
C 240.56 399.29 252.32 387.78 259.74 395.26 C 267.16 402.73 251.25 406.58 245.00 404.00 C 238.75 401.42 222.63 409.00 221.03 399.97 C 219.43 390.95 221.65 381.30 221.00 372.00 C 220.35 362.70 221.17 353.55 221.00 344.00 C 220.83 334.45 237.73 340.92 244.00 339.00 C 250.27 337.08 266.67 339.14 260.23 347.23 C 253.79 355.31 240.23 343.94 233.00 349.00
M 309.00 376.00 
C 308.31 372.04 310.58 363.92 310.00 359.00 C 309.42 354.08 308.98 345.92 311.00 342.00
C 315.09 334.09 323.99 340.97 322.00 349.00 C 320.01 357.03 323.02 365.72 322.00 374.00 C 320.98 382.28 322.74 390.50 322.00 399.00 C 321.26 407.50 309.80 404.26 308.08 397.92 C 306.35 391.58 301.55 387.60 299.23 381.77 C 296.91 375.94 293.77 370.64 290.00 366.00
C 291.45 374.49 288.06 383.57 290.00 392.00 C 291.94 400.43 285.47 409.19 279.00 401.00
C 275.38 394.29 277.95 380.10 278.00 372.00 C 278.05 363.90 275.46 348.85 279.00 342.00
C 285.04 330.32 294.10 347.13 297.30 352.70 C 300.51 358.26 304.24 371.24 309.00 376.00
M 352.00 339.00 
C 358.08 342.04 352.11 357.49 354.00 364.00 C 355.89 370.51 351.67 383.02 355.33 389.67 C 358.99 396.33 371.06 395.87 373.30 388.30 C 375.55 380.74 372.06 369.48 374.00 362.00 C 375.94 354.52 368.33 341.87 378.03 339.03 C 387.72 336.18 386.67 351.89 386.00 359.00 C 385.33 366.11 386.62 378.87 386.00 386.00 C 385.38 393.13 382.51 399.59 375.77 402.77 C 369.03 405.95 359.14 405.76 352.32 402.68 C 345.50 399.60 342.94 392.14 343.00 385.00 C 343.06 377.86 343.15 364.74 343.00 358.00 C 342.85 351.26 340.44 333.22 352.00 339.00
M 321.00 422.00 
C 331.57 424.95 325.88 439.56 315.00 437.00 C 304.12 434.44 292.13 438.22 281.00 437.00 C 269.87 435.78 258.24 437.68 247.00 437.00 C 235.76 436.32 224.29 437.61 213.00 437.00 C 201.71 436.39 190.30 437.94 179.00 437.00 C 167.70 436.06 156.30 438.90 145.00 437.00 C 133.70 435.10 139.97 419.41 151.00 422.00 C 162.03 424.59 173.83 420.74 185.00 422.00 C 196.17 423.26 207.80 421.22 219.00 422.00 C 230.20 422.78 241.86 421.18 253.00 422.00 C 264.14 422.82 276.04 420.59 287.00 422.00 C 297.96 423.41 310.47 419.06 321.00 422.00 Z"/>
</g>
<g fill="#D18030" fill-opacity="1.00" stroke="None">
<path d="
M 404.00 220.00 
C 403.93 227.43 403.87 236.55 404.00 244.00
C 404.37 265.07 405.18 288.83 404.00 310.00
C 403.89 312.01 403.89 314.93 404.00 317.00
C 405.95 352.08 405.95 390.84 404.00 426.00
C 403.89 428.01 403.89 430.93 404.00 433.00
C 406.33 453.01 404.33 475.16 405.00 496.00
C 412.49 494.87 421.68 497.51 429.00 496.00 C 436.32 494.49 445.90 498.46 452.00 497.00
C 460.42 494.23 454.78 477.88 456.00 470.00 C 457.22 462.12 455.43 448.12 456.00 439.00 C 456.57 429.88 455.75 418.74 456.00 409.00 C 456.25 399.26 455.89 388.03 456.00 378.00 C 456.11 367.97 455.95 357.11 456.00 347.00 C 456.05 336.89 455.98 327.15 456.00 317.00 C 456.02 306.85 455.99 296.17 456.00 286.00 C 456.01 275.83 456.00 266.19 456.00 256.00 C 456.00 245.81 456.01 235.22 456.00 225.00 C 455.99 214.78 456.02 204.17 456.00 194.00 C 455.98 183.83 456.05 174.12 456.00 164.00 C 455.95 153.88 456.10 143.03 456.00 133.00 C 455.90 122.97 456.23 111.74 456.00 102.00 C 455.77 92.26 456.52 81.13 456.00 72.00 C 455.48 62.87 457.13 48.90 456.00 41.00 C 454.87 33.10 460.30 17.73 452.00 15.00
C 437.32 17.33 420.50 15.33 405.00 16.00
C 405.64 83.86 404.59 152.89 404.00 220.00 Z"/>
</g>
<g fill="#CECCCA" fill-opacity="1.00" stroke="None">
<path d="
M 73.00 48.00 
C 53.50 41.87 53.44 71.26 73.00 65.00
C 73.00 59.33 73.00 53.67 73.00 48.00 Z"/>
</g>
<g fill="#000000" fill-opacity="1.00" stroke="None">
<path d="
M 404.00 244.00 
C 403.87 236.55 403.93 227.43 404.00 220.00
C 402.46 209.12 385.33 216.01 385.00 207.00 C 384.67 197.99 382.02 188.64 379.32 180.68 C 376.62 172.71 373.29 165.85 368.92 159.08 C 364.55 152.31 361.27 147.06 355.75 141.25 C 350.24 135.43 345.14 130.72 338.75 126.25 C 332.35 121.79 325.99 117.44 318.68 114.32 C 311.37 111.20 303.00 108.10 295.00 107.00
C 295.37 98.29 298.85 81.10 288.08 76.92 C 277.30 72.75 264.03 73.16 254.08 78.08 C 244.13 83.00 248.09 98.39 249.00 107.00
C 199.98 115.36 159.37 162.29 158.00 212.00
C 140.32 208.44 135.25 225.97 139.01 240.99 C 142.77 256.02 162.28 250.51 176.00 251.00 C 189.72 251.49 208.41 250.90 223.00 251.00 C 237.59 251.10 255.27 251.22 270.00 251.00 C 284.73 250.78 302.75 251.68 317.00 251.00 C 331.25 250.32 351.18 252.61 364.00 251.00 C 376.82 249.39 398.98 257.59 404.00 244.00
M 279.00 104.00 
C 277.14 105.86 265.73 106.01 264.00 104.00
C 261.65 101.28 264.16 93.34 263.00 90.00
C 269.00 90.00 275.00 90.00 281.00 90.00
C 279.78 94.42 280.87 100.14 279.00 104.00
M 320.00 212.00 
C 308.47 212.00 293.15 211.77 282.00 212.00 C 270.85 212.23 253.75 211.38 244.00 212.00 C 234.25 212.62 213.50 207.47 214.00 220.00 C 214.51 232.54 236.11 225.70 246.00 227.00 C 255.89 228.30 272.79 226.22 284.00 227.00 C 295.21 227.78 310.45 226.23 322.00 227.00 C 333.55 227.77 348.86 225.71 360.00 227.00 C 371.14 228.29 391.48 220.76 390.00 236.00
C 311.33 236.00 232.67 236.00 154.00 236.00
C 154.00 233.00 154.00 230.00 154.00 227.00
C 165.51 222.96 179.12 232.80 190.07 226.07 C 201.02 219.35 181.98 205.31 173.00 212.00
C 175.23 167.21 212.87 125.20 258.00 121.00
C 313.00 113.32 368.54 155.15 370.00 212.00
C 353.33 212.00 336.67 212.00 320.00 212.00 Z"/>
</g>
<g fill="#FBFBFB" fill-opacity="1.00" stroke="None">
<path d="
M 264.00 104.00 
C 267.77 102.24 275.64 106.35 279.00 104.00
C 280.87 100.14 279.78 94.42 281.00 90.00
C 275.00 90.00 269.00 90.00 263.00 90.00
C 264.16 93.34 261.65 101.28 264.00 104.00 Z"/>
</g>
<g fill="#717171" fill-opacity="1.00" stroke="None">
<path d="
M 279.00 104.00 
C 275.64 106.35 267.77 102.24 264.00 104.00
C 265.73 106.01 277.14 105.86 279.00 104.00 Z"/>
</g>
<g fill="#C8C8C8" fill-opacity="1.00" stroke="None">
<path d="
M 258.00 121.00 
C 269.60 123.45 277.94 134.97 287.75 142.25 C 297.56 149.53 303.02 161.38 308.93 172.07 C 314.83 182.77 319.29 199.25 320.00 212.00
C 336.67 212.00 353.33 212.00 370.00 212.00
C 368.54 155.15 313.00 113.32 258.00 121.00 Z"/>
</g>
<g fill="#DEDEDD" fill-opacity="1.00" stroke="None">
<path d="
M 320.00 212.00 
C 319.29 199.25 314.83 182.77 308.93 172.07 C 303.02 161.38 297.56 149.53 287.75 142.25 C 277.94 134.97 269.60 123.45 258.00 121.00
C 212.87 125.20 175.23 167.21 173.00 212.00
C 181.98 205.31 201.02 219.35 190.07 226.07 C 179.12 232.80 165.51 222.96 154.00 227.00
C 154.00 230.00 154.00 233.00 154.00 236.00
C 232.67 236.00 311.33 236.00 390.00 236.00
C 391.48 220.76 371.14 228.29 360.00 227.00 C 348.86 225.71 333.55 227.77 322.00 227.00 C 310.45 226.23 295.21 227.78 284.00 227.00 C 272.79 226.22 255.89 228.30 246.00 227.00 C 236.11 225.70 214.51 232.54 214.00 220.00 C 213.50 207.47 234.25 212.62 244.00 212.00 C 253.75 211.38 270.85 212.23 282.00 212.00 C 293.15 211.77 308.47 212.00 320.00 212.00 Z"/>
</g>
<g fill="#CECDCB" fill-opacity="1.00" stroke="None">
<path d="
M 73.00 128.00 
C 53.42 121.75 53.53 151.14 73.00 145.00
C 73.00 139.33 73.00 133.67 73.00 128.00 Z"/>
</g>
<g fill="#CECCCA" fill-opacity="1.00" stroke="None">
<path d="
M 73.00 208.00 
C 65.52 204.72 50.07 213.51 59.77 222.23 C 69.47 230.95 77.19 218.67 73.00 208.00 Z"/>
</g>
<g fill="#CECCCA" fill-opacity="1.00" stroke="None">
<path d="
M 73.00 304.00 
C 72.89 298.46 75.15 286.49 68.01 287.01 C 60.87 287.53 56.82 290.59 57.68 297.32 C 58.53 304.05 67.32 305.06 73.00 304.00 Z"/>
</g>
<g fill="#000000" fill-opacity="1.00" stroke="None">
<path d="
M 404.00 317.00 
C 403.89 314.93 403.89 312.01 404.00 310.00
C 399.01 300.81 381.01 307.56 371.00 306.00 C 360.99 304.44 345.30 306.71 334.00 306.00 C 322.70 305.29 308.89 306.33 297.00 306.00 C 285.11 305.67 272.19 306.16 260.00 306.00 C 247.81 305.84 235.40 306.11 223.00 306.00 C 210.60 305.89 198.65 306.14 186.00 306.00 C 173.35 305.86 162.11 306.25 149.00 306.00 C 135.90 305.76 136.83 322.70 150.00 321.00 C 163.17 319.30 174.33 321.79 187.00 321.00 C 199.67 320.21 211.60 321.41 224.00 321.00 C 236.40 320.59 248.83 321.30 261.00 321.00 C 273.17 320.70 286.17 321.39 298.00 321.00 C 309.83 320.61 323.85 321.73 335.00 321.00 C 346.15 320.27 362.31 322.57 372.00 321.00 C 381.69 319.43 400.05 326.39 404.00 317.00 Z"/>
</g>
<g fill="#000000" fill-opacity="1.00" stroke="None">
<path d="
M 159.00 401.00 
C 160.55 396.42 158.42 384.27 159.00 380.00 C 159.58 375.73 158.17 361.00 161.00 363.00
C 164.37 367.04 167.00 383.02 173.97 382.97 C 180.95 382.92 183.61 367.10 187.00 363.00
C 186.16 370.91 191.57 382.41 188.00 391.00 C 184.43 399.59 196.00 410.07 200.00 401.00 C 204.00 391.93 198.24 382.38 200.00 373.00 C 201.76 363.62 199.30 354.73 199.99 345.01 C 200.69 335.29 186.38 338.59 184.75 345.75 C 183.13 352.92 175.91 356.65 175.00 364.00
C 171.20 360.69 166.03 353.02 164.30 347.70 C 162.58 342.37 153.43 333.88 148.93 340.93 C 144.43 347.98 150.25 358.13 148.00 366.00 C 145.75 373.87 150.83 384.15 148.00 392.00 C 145.17 399.86 154.23 410.23 159.00 401.00 Z"/>
</g>
<g fill="#000000" fill-opacity="1.00" stroke="None">
<path d="
M 233.00 394.00 
C 230.95 392.57 231.02 377.38 233.00 376.00
C 236.78 373.36 250.71 380.07 249.92 371.08 C 249.14 362.08 237.33 370.03 233.00 367.00
C 230.95 365.57 231.02 350.38 233.00 349.00
C 240.23 343.94 253.79 355.31 260.23 347.23 C 266.67 339.14 250.27 337.08 244.00 339.00 C 237.73 340.92 220.83 334.45 221.00 344.00 C 221.17 353.55 220.35 362.70 221.00 372.00 C 221.65 381.30 219.43 390.95 221.03 399.97 C 222.63 409.00 238.75 401.42 245.00 404.00 C 251.25 406.58 267.16 402.73 259.74 395.26 C 252.32 387.78 240.56 399.29 233.00 394.00 Z"/>
</g>
<g fill="#000000" fill-opacity="1.00" stroke="None">
<path d="
M 279.00 342.00 
C 276.40 349.69 278.84 362.75 279.00 371.00 C 279.16 379.25 276.24 393.25 279.00 401.00
C 285.47 409.19 291.94 400.43 290.00 392.00 C 288.06 383.57 291.45 374.49 290.00 366.00
C 293.77 370.64 296.91 375.94 299.23 381.77 C 301.55 387.60 306.35 391.58 308.08 397.92 C 309.80 404.26 321.26 407.50 322.00 399.00 C 322.74 390.50 320.98 382.28 322.00 374.00 C 323.02 365.72 320.01 357.03 322.00 349.00 C 323.99 340.97 315.09 334.09 311.00 342.00
C 307.36 352.77 313.73 366.92 311.00 378.00
C 310.17 377.59 309.13 377.03 309.00 376.00
C 304.24 371.24 300.51 358.26 297.30 352.70 C 294.10 347.13 285.04 330.32 279.00 342.00 Z"/>
</g>
<g fill="#000000" fill-opacity="1.00" stroke="None">
<path d="
M 352.00 339.00 
C 340.44 333.22 342.85 351.26 343.00 358.00 C 343.15 364.74 343.06 377.86 343.00 385.00 C 342.94 392.14 345.50 399.60 352.32 402.68 C 359.14 405.76 369.03 405.95 375.77 402.77 C 382.51 399.59 385.38 393.13 386.00 386.00 C 386.62 378.87 385.33 366.11 386.00 359.00 C 386.67 351.89 387.72 336.18 378.03 339.03 C 368.33 341.87 375.94 354.52 374.00 362.00 C 372.06 369.48 375.55 380.74 373.30 388.30 C 371.06 395.87 358.99 396.33 355.33 389.67 C 351.67 383.02 355.89 370.51 354.00 364.00 C 352.11 357.49 358.08 342.04 352.00 339.00 Z"/>
</g>
<g fill="#74461C" fill-opacity="1.00" stroke="None">
<path d="
M 279.00 401.00 
C 276.24 393.25 279.16 379.25 279.00 371.00 C 278.84 362.75 276.40 349.69 279.00 342.00
C 275.46 348.85 278.05 363.90 278.00 372.00 C 277.95 380.10 275.38 394.29 279.00 401.00 Z"/>
</g>
<g fill="#5E3917" fill-opacity="1.00" stroke="None">
<path d="
M 309.00 376.00 
C 309.13 377.03 310.17 377.59 311.00 378.00
C 313.73 366.92 307.36 352.77 311.00 342.00
C 308.98 345.92 309.42 354.08 310.00 359.00 C 310.58 363.92 308.31 372.04 309.00 376.00 Z"/>
</g>
<g fill="#73451B" fill-opacity="1.00" stroke="None">
<path d="
M 233.00 367.00 
C 233.00 361.00 233.00 355.00 233.00 349.00
C 231.02 350.38 230.95 365.57 233.00 367.00 Z"/>
</g>
<g fill="#5D3816" fill-opacity="1.00" stroke="None">
<path d="
M 159.00 401.00 
C 164.33 390.69 156.26 373.69 161.00 363.00
C 158.17 361.00 159.58 375.73 159.00 380.00 C 158.42 384.27 160.55 396.42 159.00 401.00 Z"/>
</g>
<g fill="#CFCDCB" fill-opacity="1.00" stroke="None">
<path d="
M 73.00 367.00 
C 53.50 360.87 53.44 390.26 73.00 384.00
C 73.00 378.33 73.00 372.67 73.00 367.00 Z"/>
</g>
<g fill="#73451B" fill-opacity="1.00" stroke="None">
<path d="
M 233.00 394.00 
C 233.00 388.00 233.00 382.00 233.00 376.00
C 231.02 377.38 230.95 392.57 233.00 394.00 Z"/>
</g>
<g fill="#000000" fill-opacity="1.00" stroke="None">
<path d="
M 321.00 422.00 
C 310.47 419.06 297.96 423.41 287.00 422.00 C 276.04 420.59 264.14 422.82 253.00 422.00 C 241.86 421.18 230.20 422.78 219.00 422.00 C 207.80 421.22 196.17 423.26 185.00 422.00 C 173.83 420.74 162.03 424.59 151.00 422.00 C 139.97 419.41 133.70 435.10 145.00 437.00 C 156.30 438.90 167.70 436.06 179.00 437.00 C 190.30 437.94 201.71 436.39 213.00 437.00 C 224.29 437.61 235.76 436.32 247.00 437.00 C 258.24 437.68 269.87 435.78 281.00 437.00 C 292.13 438.22 304.12 434.44 315.00 437.00 C 325.88 439.56 331.57 424.95 321.00 422.00 Z"/>
</g>
<g fill="#000000" fill-opacity="1.00" stroke="None">
<path d="
M 404.00 433.00 
C 403.89 430.93 403.89 428.01 404.00 426.00
C 399.67 418.02 380.55 422.96 373.00 422.00 C 365.45 421.04 346.69 419.35 347.01 429.99 C 347.33 440.63 366.87 437.51 374.00 437.00 C 381.13 436.49 400.65 440.97 404.00 433.00 Z"/>
</g>
<g fill="#CECCCA" fill-opacity="1.00" stroke="None">
<path d="
M 73.00 447.00 
C 53.42 440.75 53.53 470.14 73.00 464.00
C 73.00 458.33 73.00 452.67 73.00 447.00 Z"/>
</g>
</svg>